<?xml version="1.0" encoding="utf-8"?>
<!-- Generator: Adobe Illustrator 24.0.1, SVG Export Plug-In . SVG Version: 6.00 Build 0)  -->
<svg version="1.1" id="Layer_1" xmlns="http://www.w3.org/2000/svg" xmlns:xlink="http://www.w3.org/1999/xlink" x="0px" y="0px"
	 viewBox="0 0 128 128" style="enable-background:new 0 0 128 128;" xml:space="preserve">
<style type="text/css">
	.st0{fill:#F2F2F2;}
	.st1{fill:#FFFFFF;}
	.st2{fill:#208DB2;}
	.st3{fill:#A3E0F5;}
	.st4{fill:#EFC75E;}
	.st5{fill:#3DB39E;}
	.st6{fill:#4BC2AD;}
	.st7{enable-background:new    ;}
	.st8{fill:#888888;}
</style>
<title>img</title>
<desc>Created with Sketch.</desc>
<g id="page">
	<g id="d570170f4f12e1ee829ca0e85a7dffeb77343a">
		<rect id="rect" y="0" class="st0" width="128" height="128"/>
		<g id="pictures_1204563_easyicon.net" transform="translate(29.000000, 22.000000)">
			<path id="Path" class="st1" d="M1.9,14.4L55.3,0.1c1.7-0.4,3.4,0.6,3.9,2.2l10.6,39.2c0.4,1.7-0.6,3.4-2.3,3.8L14.1,59.6
				c-1.7,0.4-3.4-0.6-3.9-2.2L-0.3,18.2C-0.7,16.5,0.3,14.8,1.9,14.4z"/>
			<path id="Path_1_" class="st2" d="M6.4,17.5L53.1,5.1c1.3-0.3,2.6,0.4,3,1.7l8.7,32.5c0.3,1.3-0.4,2.6-1.7,2.9L16.4,54.7
				c-1.3,0.3-2.6-0.4-3-1.7L4.7,20.5C4.3,19.2,5.1,17.9,6.4,17.5z"/>
			<path id="Path_2_" class="st1" d="M11.8,14h55.5c1.8,0,3.1,1.4,3.1,3.2v41.2c0,1.8-1.4,3.2-3.1,3.2H11.8c-1.8,0-3.1-1.4-3.1-3.2
				V17.2C8.6,15.4,10.1,14,11.8,14z"/>
			<path id="Path_3_" class="st3" d="M15.3,18.2h48.4c1.3,0,2.4,1.1,2.4,2.4v33.9c0,1.3-1.1,2.4-2.4,2.4H15.3
				c-1.3,0-2.4-1.1-2.4-2.4V20.7C12.9,19.4,13.9,18.2,15.3,18.2z"/>
			<path id="Path_4_" class="st4" d="M12.9,20.7v11.9c0.5,0.1,1.1,0.1,1.6,0.1c7,0,12.6-5.7,12.6-12.8c0-0.6-0.1-1.1-0.1-1.7H15.3
				C13.9,18.2,12.9,19.4,12.9,20.7z"/>
			<path id="Path_5_" class="st5" d="M16.9,45.5c-1.4,0-2.8,0.1-4,0.3v8.8c0,1.3,1.1,2.4,2.4,2.4h18.4c0.1-0.5,0.2-0.9,0.2-1.4
				C33.9,50,26.3,45.5,16.9,45.5z"/>
			<path id="Path_6_" class="st6" d="M55.6,40.5C40.4,40.5,28,47.9,27.9,57h35.8c1.3,0,2.4-1.1,2.4-2.4V41.8
				C62.9,41,59.3,40.5,55.6,40.5z"/>
		</g>
	</g>
	<g class="st7">
		<path class="st8" d="M23.5,103.6h1.8l-1.7,9.7h4.9l-0.3,1.7h-6.7L23.5,103.6z"/>
		<path class="st8" d="M32.6,114.7c-0.8-0.4-1.4-1.1-1.9-1.9c-0.5-0.8-0.7-1.7-0.7-2.7c0-1.2,0.3-2.3,0.9-3.3s1.4-1.9,2.4-2.5
			s2.2-0.9,3.5-0.9c1,0,1.9,0.2,2.7,0.7c0.8,0.4,1.4,1.1,1.9,1.9s0.7,1.7,0.7,2.7c0,1.2-0.3,2.3-0.9,3.3s-1.4,1.9-2.4,2.5
			c-1,0.6-2.2,0.9-3.5,0.9C34.4,115.3,33.5,115.1,32.6,114.7z M37.9,112.9c0.7-0.5,1.3-1.1,1.7-1.8c0.4-0.8,0.6-1.6,0.6-2.4
			c0-0.7-0.2-1.3-0.5-1.9c-0.3-0.5-0.8-1-1.3-1.3s-1.2-0.4-1.9-0.4c-0.9,0-1.7,0.2-2.4,0.7c-0.7,0.5-1.3,1.1-1.7,1.8
			s-0.6,1.6-0.6,2.4c0,0.7,0.2,1.4,0.5,1.9c0.3,0.5,0.8,1,1.3,1.3c0.6,0.3,1.2,0.4,1.9,0.4C36.4,113.6,37.2,113.4,37.9,112.9z"/>
		<path class="st8" d="M47.9,103.6H50l2.3,11.5h-1.9l-0.5-2.9h-4.6l-1.6,2.9h-2L47.9,103.6z M49.5,110.5l-0.6-3.4l-0.2-1.3h-0.1
			l-0.7,1.3l-1.8,3.4H49.5z"/>
		<path class="st8" d="M55.9,103.6h3.6c1.1,0,2,0.2,2.7,0.6c0.8,0.4,1.3,1,1.7,1.8c0.4,0.8,0.6,1.6,0.6,2.6c0,1.2-0.3,2.2-0.8,3.2
			s-1.3,1.8-2.4,2.4c-1,0.6-2.2,0.9-3.6,0.9h-3.9L55.9,103.6z M57.8,113.4c0.9,0,1.8-0.2,2.5-0.6c0.7-0.4,1.3-1,1.8-1.6
			c0.4-0.7,0.6-1.5,0.6-2.3c0-1.1-0.3-2-0.9-2.6s-1.5-0.9-2.6-0.9h-1.9l-1.4,8H57.8z"/>
		<path class="st8" d="M67.4,103.6h1.8l-2,11.5h-1.8L67.4,103.6z"/>
		<path class="st8" d="M71.8,103.6h2l3.8,8.3h0.1l0.3-2.2l1.1-6.1h1.8l-2,11.5h-1.7l-4-8.8H73l-0.3,2.2l-1.2,6.6h-1.8L71.8,103.6z"
			/>
		<path class="st8" d="M84.3,114.7c-0.8-0.4-1.4-1.1-1.9-1.9s-0.7-1.7-0.7-2.8c0-1.2,0.3-2.3,0.9-3.3c0.6-1,1.4-1.8,2.5-2.4
			c1.1-0.6,2.3-0.9,3.6-0.9c0.9,0,1.7,0.2,2.4,0.5c0.7,0.3,1.3,0.8,1.7,1.3l-1.4,1.2c-0.3-0.4-0.7-0.7-1.2-1
			c-0.5-0.2-1.1-0.4-1.7-0.4c-0.9,0-1.7,0.2-2.5,0.6s-1.3,1-1.8,1.7c-0.4,0.7-0.6,1.6-0.6,2.5c0,0.8,0.2,1.4,0.5,2s0.8,1,1.3,1.3
			c0.6,0.3,1.2,0.4,1.8,0.4c1.3,0,2.3-0.4,3.1-1.2c0.5-0.5,0.9-1.2,1.2-2h-3.8l0.3-1.6h5.6c0,0.2,0,0.5,0,0.8
			c-0.2,1.6-0.8,2.9-1.9,4c-1.2,1.2-2.7,1.7-4.5,1.7C86,115.3,85.1,115.1,84.3,114.7z"/>
		<path class="st8" d="M94.2,114.8c-0.2-0.2-0.4-0.5-0.4-0.9c0-0.3,0.1-0.6,0.4-0.9s0.5-0.4,0.9-0.4c0.3,0,0.6,0.1,0.9,0.4
			c0.2,0.2,0.4,0.5,0.4,0.9c0,0.3-0.1,0.6-0.4,0.9c-0.2,0.2-0.5,0.4-0.9,0.4C94.7,115.2,94.4,115,94.2,114.8z"/>
		<path class="st8" d="M98.1,114.8c-0.2-0.2-0.4-0.5-0.4-0.9c0-0.3,0.1-0.6,0.4-0.9c0.2-0.2,0.5-0.4,0.9-0.4c0.3,0,0.6,0.1,0.9,0.4
			s0.4,0.5,0.4,0.9c0,0.3-0.1,0.6-0.4,0.9s-0.5,0.4-0.9,0.4S98.4,115,98.1,114.8z"/>
		<path class="st8" d="M102.1,114.8c-0.2-0.2-0.4-0.5-0.4-0.9c0-0.3,0.1-0.6,0.4-0.9s0.5-0.4,0.9-0.4c0.3,0,0.6,0.1,0.9,0.4
			c0.2,0.2,0.4,0.5,0.4,0.9c0,0.3-0.1,0.6-0.4,0.9c-0.2,0.2-0.5,0.4-0.9,0.4C102.6,115.2,102.4,115,102.1,114.8z"/>
	</g>
</g>
</svg>
